<svg xmlns="http://www.w3.org/2000/svg" width="134.34" height="35" viewBox="0 0 134.34 35"><rect class="svg__rect" x="0" y="0" width="55.39" height="35" fill="#31C4F3"/><rect class="svg__rect" x="53.39" y="0" width="80.95" height="35" fill="#389AD5"/><path class="svg__text" d="M16.25 14.66L13.61 14.66L13.61 13.47L20.38 13.47L20.38 14.66L17.72 14.66L17.72 22L16.25 22L16.25 14.66ZM25.62 22L24.14 22L24.14 13.47L27.14 13.47Q28.61 13.47 29.42 14.13Q30.22 14.79 30.22 16.05L30.22 16.05Q30.22 16.90 29.81 17.48Q29.39 18.06 28.65 18.37L28.65 18.37L30.57 21.92L30.57 22L28.98 22L27.27 18.71L25.62 18.71L25.62 22ZM25.62 14.66L25.62 17.52L27.14 17.52Q27.89 17.52 28.31 17.15Q28.74 16.77 28.74 16.11L28.74 16.11Q28.74 15.43 28.35 15.05Q27.96 14.68 27.18 14.66L27.18 14.66L25.62 14.66ZM36.65 18.86L33.79 13.47L35.43 13.47L37.40 17.51L39.36 13.47L41.00 13.47L38.14 18.86L38.14 22L36.65 22L36.65 18.86Z" fill="#FFFFFF"/><path class="svg__text" d="M66.99 21.24L66.99 21.24L67.77 19.49Q68.33 19.86 69.08 20.09Q69.82 20.32 70.54 20.32L70.54 20.32Q71.91 20.32 71.91 19.64L71.91 19.64Q71.91 19.28 71.52 19.11Q71.13 18.93 70.27 18.74L70.27 18.74Q69.32 18.53 68.68 18.30Q68.05 18.06 67.59 17.55Q67.14 17.03 67.14 16.16L67.14 16.16Q67.14 15.39 67.56 14.77Q67.98 14.15 68.81 13.79Q69.65 13.43 70.85 13.43L70.85 13.43Q71.68 13.43 72.49 13.62Q73.29 13.80 73.91 14.17L73.91 14.17L73.17 15.93Q71.97 15.28 70.84 15.28L70.84 15.28Q70.13 15.28 69.81 15.49Q69.49 15.70 69.49 16.04L69.49 16.04Q69.49 16.37 69.87 16.54Q70.26 16.71 71.11 16.89L71.11 16.89Q72.07 17.10 72.70 17.33Q73.33 17.56 73.79 18.07Q74.25 18.58 74.25 19.46L74.25 19.46Q74.25 20.21 73.83 20.83Q73.41 21.44 72.57 21.80Q71.73 22.17 70.53 22.17L70.53 22.17Q69.51 22.17 68.55 21.92Q67.59 21.67 66.99 21.24ZM78.76 18.26L78.76 18.26L78.76 13.60L81.14 13.60L81.14 18.19Q81.14 20.20 82.73 20.20L82.73 20.20Q84.31 20.20 84.31 18.19L84.31 18.19L84.31 13.60L86.66 13.60L86.66 18.26Q86.66 20.13 85.62 21.15Q84.58 22.17 82.71 22.17L82.71 22.17Q80.83 22.17 79.79 21.15Q78.76 20.13 78.76 18.26ZM96.28 22L91.74 22L91.74 13.60L96.04 13.60Q97.65 13.60 98.49 14.19Q99.33 14.79 99.33 15.79L99.33 15.79Q99.33 16.39 99.03 16.87Q98.74 17.34 98.20 17.62L98.20 17.62Q98.92 17.87 99.33 18.41Q99.73 18.94 99.73 19.70L99.73 19.70Q99.73 20.80 98.85 21.40Q97.96 22 96.28 22L96.28 22ZM94.10 18.58L94.10 20.28L96.09 20.28Q97.34 20.28 97.34 19.43L97.34 19.43Q97.34 18.58 96.09 18.58L96.09 18.58L94.10 18.58ZM94.10 15.31L94.10 16.94L95.73 16.94Q96.93 16.94 96.93 16.12L96.93 16.12Q96.93 15.31 95.73 15.31L95.73 15.31L94.10 15.31ZM106.24 15.48L103.66 15.48L103.66 13.60L111.18 13.60L111.18 15.48L108.62 15.48L108.62 22L106.24 22L106.24 15.48ZM121.94 22L115.55 22L115.55 13.60L117.93 13.60L117.93 20.11L121.94 20.11L121.94 22Z" fill="#FFFFFF" x="66.39"/></svg>